<svg width="1024" height="1024" viewBox="0 0 1024 1024" fill="none" xmlns="http://www.w3.org/2000/svg">
  <title>墨笔AI Icon</title>
  <defs>
    <linearGradient id="ink" x1="270" y1="154" x2="725" y2="800" gradientUnits="userSpaceOnUse">
      <stop offset="0" stop-color="#111827"/>
      <stop offset="0.58" stop-color="#263248"/>
      <stop offset="1" stop-color="#0B1020"/>
    </linearGradient>
    <linearGradient id="accent" x1="512" y1="194" x2="760" y2="645" gradientUnits="userSpaceOnUse">
      <stop offset="0" stop-color="#33E6C6"/>
      <stop offset="1" stop-color="#4F7CFF"/>
    </linearGradient>
    <linearGradient id="paper" x1="238" y1="472" x2="774" y2="760" gradientUnits="userSpaceOnUse">
      <stop offset="0" stop-color="#F6F0E4"/>
      <stop offset="1" stop-color="#E4D7C0"/>
    </linearGradient>
    <filter id="shadow" x="70" y="62" width="884" height="908" filterUnits="userSpaceOnUse" color-interpolation-filters="sRGB">
      <feDropShadow dx="0" dy="36" stdDeviation="34" flood-color="#0B1020" flood-opacity="0.22"/>
    </filter>
  </defs>

  <rect width="1024" height="1024" rx="228" fill="#F8F5EE"/>
  <rect x="44" y="44" width="936" height="936" rx="196" stroke="#172033" stroke-opacity="0.08" stroke-width="8"/>

  <g filter="url(#shadow)">
    <path d="M188 490C291 437 397 451 512 532V808C402 737 293 719 188 765V490Z" fill="url(#paper)"/>
    <path d="M836 490C733 437 627 451 512 532V808C622 737 731 719 836 765V490Z" fill="url(#paper)"/>
    <path d="M512 532V810" stroke="#7A6B54" stroke-opacity="0.34" stroke-width="10" stroke-linecap="round"/>
    <path d="M268 568C343 546 402 556 464 596" stroke="#7A6B54" stroke-opacity="0.28" stroke-width="16" stroke-linecap="round"/>
    <path d="M274 644C342 626 398 635 456 672" stroke="#7A6B54" stroke-opacity="0.2" stroke-width="16" stroke-linecap="round"/>
    <path d="M756 568C681 546 622 556 560 596" stroke="#7A6B54" stroke-opacity="0.28" stroke-width="16" stroke-linecap="round"/>
    <path d="M750 644C682 626 626 635 568 672" stroke="#7A6B54" stroke-opacity="0.2" stroke-width="16" stroke-linecap="round"/>

    <path d="M650 160C694 117 766 122 803 170C842 220 829 292 776 329L536 496L423 383L650 160Z" fill="url(#ink)"/>
    <path d="M447 404L509 466L345 654C304 701 238 682 228 623C224 596 233 570 253 551L447 404Z" fill="url(#ink)"/>
    <path d="M383 520C431 565 459 612 453 668C448 737 389 792 307 824C350 751 329 695 278 645L383 520Z" fill="url(#accent)"/>
    <path d="M674 198L743 267" stroke="#F8F5EE" stroke-opacity="0.64" stroke-width="24" stroke-linecap="round"/>

    <path d="M370 795C370 747 424 700 424 700C424 700 478 747 478 795C478 826 454 850 424 850C394 850 370 826 370 795Z" fill="#0B1020"/>

    <path d="M741 388L769 460L841 488L769 516L741 588L713 516L641 488L713 460L741 388Z" fill="url(#accent)"/>
    <path d="M606 274L623 318L667 335L623 352L606 396L589 352L545 335L589 318L606 274Z" fill="#33E6C6"/>
  </g>
</svg>
